<?xml version="1.0" encoding="UTF-8"?>
<svg id="_レイヤー_2" data-name="レイヤー 2" xmlns="http://www.w3.org/2000/svg" viewBox="0 0 296.63 55.43">
  <defs>
    <style>
      .cls-1 {
        fill: #fff;
      }
    </style>
  </defs>
  <g id="_レイヤー_1-2" data-name="レイヤー 1">
    <g>
      <g>
        <path class="cls-1" d="M209.44,8.84V.26h2.31v.45h-1.86v7.68h1.86v.45h-2.31Z"/>
        <path class="cls-1" d="M217.81,5.63V1.14l.88.06c0,.08-.07.15-.22.17v4.27h-.66ZM222.96.78c0,.09-.07.14-.22.16v2.94c0,1.94-.66,3.71-3.31,4.74-.09-.14-.32-.38-.48-.5,2.56-.95,3.13-2.53,3.13-4.24V.73l.89.06Z"/>
        <path class="cls-1" d="M234.17,1.37s-.07.06-.12.08c-.5,1.18-1.29,2.21-2.19,2.95-.14-.12-.4-.29-.56-.38.85-.62,1.53-1.51,1.84-2.29h-6.61v-.63h6.96l.1-.05.58.3ZM230.57,3.05c0,.07-.09.14-.21.16-.27,2.18-1.02,4.26-2.92,5.35-.13-.11-.37-.32-.54-.42,1.88-1.03,2.56-2.96,2.78-5.19l.9.1Z"/>
        <path class="cls-1" d="M243.69,3.53s-.06.07-.12.09c-.76,2.79-2.3,4.15-5.06,4.91-.08-.17-.26-.4-.39-.54,2.51-.63,4.07-1.92,4.65-4.06h-6.11v-.63h6.39l.09-.06.54.28ZM242.82,1.55h-5.26v-.61h5.26v.61Z"/>
        <path class="cls-1" d="M253.76,1.12s-.09.07-.18.07c-.03,0-.06,0-.09,0-.71.72-1.74,1.56-2.63,2.21.07.03.19.08.22.1-.02.06-.1.11-.2.12v4.96h-.67V3.82c-.98.69-2.25,1.44-3.52,2.06-.09-.15-.26-.38-.39-.51,2.52-1.16,5.28-3.14,6.77-4.77l.69.52Z"/>
        <path class="cls-1" d="M262.52,1.68s-.06.06-.1.06c-.42,1.01-1.06,2.16-1.78,3.11,1,.79,2.54,2.19,3.41,3.15l-.59.46c-.83-.96-2.28-2.33-3.23-3.08-.8.99-2.19,2.33-3.53,3.09-.11-.14-.31-.36-.48-.5,2.56-1.4,4.51-3.97,5.33-5.98h-4.55v-.63h4.89l.12-.05.52.36ZM262.56.44c.39.39.82.98,1.06,1.44l-.38.23c-.21-.41-.65-1.03-1.03-1.43l.35-.24ZM263.7,0c.32.33.81.98,1.03,1.39l-.38.23c-.19-.41-.69-1.07-1.01-1.39l.35-.23Z"/>
        <path class="cls-1" d="M276.46,1.55s-.07.07-.12.09c-.36,3.61-1.59,5.55-4.67,6.79-.12-.16-.3-.36-.46-.5,2.94-1.2,4.1-2.95,4.4-5.98h-5.27v2.55h-.64V1.33h6.12l.1-.07.54.3Z"/>
        <path class="cls-1" d="M279.81,1.27c.96.3,2.07.78,2.75,1.26l-.35.58c-.66-.47-1.75-.96-2.7-1.28l.3-.55ZM279.77,7.67c3.28-1.02,5.46-2.85,6.56-5.41.19.16.41.28.6.38-1.15,2.53-3.41,4.5-6.54,5.54,0,.08-.06.18-.13.21l-.5-.72Z"/>
        <path class="cls-1" d="M293.86,8.84h-2.31v-.45h1.86V.71h-1.86v-.45h2.31v8.59Z"/>
      </g>
      <g>
        <path class="cls-1" d="M101.77,47.37c.38,0,.73.03,1.04.1s.58.18.8.32c.22.15.39.34.51.57.12.23.18.52.18.87,0,.53-.16.93-.47,1.21-.31.28-.73.47-1.26.56l1.59,2.27c.06.08.12.13.2.14.08.02.15.02.21.02v.22h-2.24v-.22c.07,0,.13-.01.19-.04.05-.02.08-.06.08-.1s-.02-.09-.05-.14c-.03-.05-.08-.12-.14-.21l-1.32-1.87h-1.71v2.13c0,.07.03.13.08.16.05.04.14.05.28.05v.22h-2.07v-.22c.23,0,.35-.07.35-.22v-5.43c0-.14-.12-.21-.35-.21v-.22h4.09ZM101.46,50.17c.29,0,.53-.02.72-.07.19-.04.34-.11.45-.19.11-.08.19-.17.24-.28.05-.11.07-.23.07-.35s-.02-.25-.07-.35c-.05-.11-.13-.2-.24-.28-.11-.08-.26-.14-.45-.18-.19-.04-.43-.07-.72-.07h-2.07v1.77h2.07Z"/>
        <path class="cls-1" d="M110.71,49.51c0-.15-.12-.23-.37-.23h-2.92v1.2h1.84c.14,0,.24,0,.3-.03.06-.02.1-.07.1-.16h.21v1.27h-.24c.02-.09,0-.14-.1-.16-.09-.02-.21-.03-.37-.03h-1.75v1.41h3.06c.1,0,.18-.02.24-.07.06-.04.1-.1.1-.17h.22v1.26h-.22c0-.07-.03-.11-.1-.12-.06,0-.14-.01-.24-.01h-4.39v-.22s.08-.01.12-.04c.04-.03.06-.07.06-.14v-4.47c0-.06-.02-.11-.06-.14-.04-.03-.08-.04-.12-.04v-.22h4.25c.25,0,.37-.07.37-.22h.22v1.33h-.22Z"/>
        <path class="cls-1" d="M111.7,53.44c.1-.02.17-.06.23-.14.06-.08.11-.15.14-.21l1.78-3.89c.05-.11.09-.2.11-.27.03-.07.04-.13.04-.2,0-.05-.01-.08-.03-.09-.02-.01-.04-.03-.07-.04v-.22h1.81v.22s-.05.03-.08.04c-.03,0-.04.04-.04.1,0,.05.02.11.05.17.04.07.07.15.11.23l1.94,4.07c.04.07.08.12.13.16.05.03.1.06.16.07v.22h-1.7v-.18s.08-.01.13-.04c.04-.02.07-.07.07-.13,0-.05,0-.09-.02-.13-.02-.04-.04-.09-.06-.16l-.32-.68h-2.56l-.34.65c-.03.06-.06.12-.08.17-.02.05-.03.1-.03.14,0,.06.02.1.06.12.04.02.1.02.17.02v.22h-1.6v-.22ZM115.7,51.46l-.97-2.01-.85,2.01h1.82Z"/>
        <path class="cls-1" d="M120.58,48.4v.22c-.18,0-.28.06-.28.18v3.98h3.23c.1,0,.18-.02.24-.07.06-.04.1-.11.1-.19h.21v1.26h-.21c0-.06-.03-.1-.1-.11-.06,0-.14-.01-.24-.01h-4.69v-.22c.21,0,.31-.06.31-.18v-4.47c0-.12-.1-.18-.31-.18v-.22h1.73Z"/>
        <path class="cls-1" d="M125.42,53.44c.13,0,.22-.01.26-.04.05-.03.07-.07.07-.14v-4.47c0-.06-.02-.11-.07-.14-.05-.03-.14-.04-.26-.04v-.22h1.82v.22c-.22,0-.34.06-.34.18v4.47c0,.12.11.18.34.18v.22h-1.82v-.22Z"/>
        <path class="cls-1" d="M132.02,49.28h-2.74c-.1,0-.18.02-.23.07s-.07.1-.07.17h-.22v-1.4h.22c0,.18.1.27.3.27h4.76v.22l-3.34,4.16h2.86c.18,0,.27-.08.27-.25h.22v1.26h-.22c0-.08-.09-.12-.27-.12h-4.8v-.22l3.25-4.16Z"/>
        <path class="cls-1" d="M140.09,49.51c0-.15-.12-.23-.37-.23h-2.92v1.2h1.84c.14,0,.24,0,.3-.03.06-.02.1-.07.1-.16h.21v1.27h-.24c.02-.09,0-.14-.1-.16-.09-.02-.21-.03-.37-.03h-1.75v1.41h3.06c.1,0,.18-.02.24-.07.06-.04.1-.1.1-.17h.22v1.26h-.22c0-.07-.03-.11-.1-.12-.06,0-.14-.01-.24-.01h-4.39v-.22s.08-.01.12-.04c.04-.03.06-.07.06-.14v-4.47c0-.06-.02-.11-.06-.14-.04-.03-.08-.04-.12-.04v-.22h4.25c.25,0,.37-.07.37-.22h.22v1.33h-.22Z"/>
        <path class="cls-1" d="M147.96,48.32c.44,0,.85.06,1.24.17.39.11.72.28,1.01.5.29.22.51.5.68.84.17.34.25.74.25,1.19s-.08.85-.25,1.19c-.17.34-.39.62-.68.84-.29.22-.62.38-1.01.48-.39.1-.8.15-1.24.15s-.85-.05-1.24-.15c-.39-.1-.72-.26-1.01-.48-.29-.22-.51-.5-.68-.84-.17-.34-.25-.74-.25-1.19s.08-.85.25-1.19c.17-.34.39-.62.68-.84.29-.22.62-.39,1.01-.5.39-.11.8-.17,1.24-.17ZM147.96,49.21c-.26,0-.5.04-.75.13-.24.08-.46.2-.65.36-.19.16-.34.35-.46.57-.12.22-.17.48-.17.77s.06.54.17.77c.12.22.27.41.46.57.19.16.41.27.65.36.24.08.49.13.75.13s.5-.04.75-.13c.24-.08.46-.2.65-.36.19-.16.34-.34.46-.57.12-.22.17-.48.17-.77s-.06-.54-.17-.77c-.12-.22-.27-.41-.46-.57-.19-.16-.41-.27-.65-.36-.24-.08-.49-.13-.75-.13Z"/>
        <path class="cls-1" d="M152.35,53.44c.14,0,.22-.06.22-.18v-4.47c0-.12-.07-.18-.22-.18v-.22h1.76v.22c-.06,0-.08.03-.08.06,0,.04.09.15.26.32l2.87,3.04v-3.24c0-.12-.08-.18-.24-.18v-.22h1.46v.22c-.14,0-.22.06-.22.18v4.47c0,.12.07.18.22.18v.22h-1.55v-.22c.06,0,.08-.02.08-.06,0-.03-.04-.09-.11-.17s-.16-.17-.26-.27l-2.97-3.16v3.48c0,.12.08.18.25.18v.22h-1.47v-.22Z"/>
        <path class="cls-1" d="M164.72,49.51c0-.15-.12-.23-.37-.23h-2.92v1.2h1.84c.14,0,.24,0,.3-.03.06-.02.1-.07.1-.16h.21v1.27h-.24c.02-.09,0-.14-.1-.16-.09-.02-.21-.03-.37-.03h-1.75v1.41h3.06c.1,0,.18-.02.24-.07.06-.04.1-.1.1-.17h.22v1.26h-.22c0-.07-.03-.11-.1-.12-.06,0-.14-.01-.24-.01h-4.39v-.22s.08-.01.12-.04c.04-.03.06-.07.06-.14v-4.47c0-.06-.02-.11-.06-.14-.04-.03-.08-.04-.12-.04v-.22h4.25c.25,0,.37-.07.37-.22h.22v1.33h-.22Z"/>
        <path class="cls-1" d="M169.19,53.44c.1-.02.19-.07.25-.16.06-.09.12-.19.17-.3l2.21-4.65c.06-.1.11-.2.15-.29.04-.09.07-.16.07-.23,0-.08-.03-.14-.08-.17-.06-.03-.12-.06-.18-.07v-.22h2.02v.22c-.06.02-.11.04-.17.07-.06.03-.08.09-.08.17,0,.06.01.13.04.19.03.06.07.15.13.25l2.49,4.87c.04.09.09.15.16.19.07.04.14.08.23.12v.22h-2.1v-.22s.07-.01.12-.04c.05-.02.07-.06.07-.11,0-.08-.03-.18-.1-.31l-.45-.88h-2.92l-.43.85c-.08.17-.12.29-.12.36,0,.09.08.13.23.13v.22h-1.7v-.22ZM173.7,51.22l-1-2.22-1.12,2.22h2.13Z"/>
        <path class="cls-1" d="M180.91,48.4c.71,0,1.26.12,1.66.35.4.24.6.64.6,1.2,0,.22-.04.41-.12.57-.08.17-.19.31-.32.44-.13.12-.28.22-.44.3-.16.08-.32.13-.49.17l1.17,1.71c.06.09.13.15.21.2.08.04.16.08.25.1v.22h-1.83v-.22c.1,0,.16-.04.16-.11,0-.08-.06-.2-.18-.37l-.94-1.41h-1.66v1.71c0,.06.03.11.08.14.05.03.1.04.15.04v.22h-1.59v-.22c.14,0,.22-.06.22-.18v-4.47c0-.12-.07-.18-.22-.18v-.22h3.3ZM180.88,50.67c.78,0,1.17-.25,1.17-.74,0-.2-.09-.36-.28-.47-.19-.12-.48-.17-.89-.17h-1.89v1.39h1.89Z"/>
        <path class="cls-1" d="M188.87,49.9s0-.03,0-.05,0-.04,0-.06c0-.04-.04-.09-.12-.16-.08-.07-.19-.13-.34-.2-.15-.06-.32-.12-.52-.16-.2-.04-.42-.07-.66-.07-.29,0-.55.04-.78.11-.24.08-.44.19-.62.34-.18.15-.31.34-.41.56-.1.22-.14.48-.14.77s.05.54.16.77c.11.23.25.42.42.59.18.16.37.29.6.37.22.08.45.13.68.13.22,0,.43-.03.66-.08.22-.06.43-.12.61-.2.18-.08.33-.16.45-.25.12-.09.17-.17.17-.24v-.1s0-.09-.01-.12l.13-.12.88,1.27-.12.06c-.1-.04-.16-.06-.2-.06-.06,0-.17.04-.31.11-.14.07-.32.15-.54.25s-.47.17-.77.23c-.29.06-.62.1-.98.1s-.73-.05-1.09-.16-.68-.27-.96-.5c-.28-.23-.51-.51-.68-.85-.18-.34-.26-.73-.26-1.18s.09-.84.26-1.17c.17-.33.41-.62.69-.84.29-.23.62-.4.99-.51.37-.11.75-.17,1.14-.17.3,0,.58.03.83.08.25.06.47.12.66.19.19.07.35.14.48.19.13.06.22.08.28.08.04,0,.07-.01.1-.04.03-.02.06-.04.09-.06l.14.08-.79,1.14-.13-.1Z"/>
        <path class="cls-1" d="M192.53,53.26c0,.06.02.11.05.14.04.03.08.04.13.04v.22h-1.51v-.22s.09-.01.13-.04c.04-.03.05-.07.05-.14v-4.47c0-.06-.02-.11-.05-.14-.04-.03-.08-.04-.13-.04v-.22h1.51v.22s-.09.01-.13.04c-.04.03-.05.07-.05.14v1.69h3.2v-1.69c0-.06-.02-.11-.05-.14-.04-.03-.08-.04-.13-.04v-.22h1.51v.22s-.09.01-.13.04c-.04.03-.05.07-.05.14v4.47c0,.06.02.11.05.14.04.03.08.04.13.04v.22h-1.51v-.22s.09-.01.13-.04c.04-.03.05-.07.05-.14v-1.81h-3.2v1.81Z"/>
        <path class="cls-1" d="M198.96,53.44c.13,0,.22-.01.26-.04.05-.03.07-.07.07-.14v-4.47c0-.06-.02-.11-.07-.14-.05-.03-.14-.04-.26-.04v-.22h1.82v.22c-.22,0-.34.06-.34.18v4.47c0,.12.11.18.34.18v.22h-1.82v-.22Z"/>
        <path class="cls-1" d="M203.87,53.44s.08-.01.12-.04c.04-.03.06-.07.06-.14v-3.98h-1.55c-.06,0-.12.02-.18.05-.06.03-.08.08-.08.16h-.22v-1.38h.22c0,.11.03.19.08.23.06.04.12.06.18.06h4.26c.06,0,.12-.02.18-.06.06-.04.08-.12.08-.23h.22v1.38h-.22c0-.07-.03-.12-.08-.16-.06-.03-.12-.05-.18-.05h-1.55v3.98c0,.12.07.18.22.18v.22h-1.54v-.22Z"/>
        <path class="cls-1" d="M212.97,49.51c0-.15-.12-.23-.37-.23h-2.92v1.2h1.84c.14,0,.24,0,.3-.03.06-.02.1-.07.1-.16h.21v1.27h-.24c.02-.09,0-.14-.1-.16-.09-.02-.21-.03-.37-.03h-1.75v1.41h3.06c.1,0,.18-.02.24-.07.06-.04.1-.1.1-.17h.22v1.26h-.22c0-.07-.03-.11-.1-.12-.06,0-.14-.01-.24-.01h-4.39v-.22s.08-.01.12-.04c.04-.03.06-.07.06-.14v-4.47c0-.06-.02-.11-.06-.14-.04-.03-.08-.04-.12-.04v-.22h4.25c.25,0,.37-.07.37-.22h.22v1.33h-.22Z"/>
        <path class="cls-1" d="M218.91,49.9s0-.03,0-.05,0-.04,0-.06c0-.04-.04-.09-.12-.16-.08-.07-.19-.13-.34-.2-.15-.06-.32-.12-.52-.16-.2-.04-.42-.07-.66-.07-.29,0-.55.04-.78.11-.24.08-.44.19-.62.34s-.31.34-.41.56c-.1.22-.14.48-.14.77s.05.54.16.77c.11.23.25.42.42.59.18.16.37.29.6.37.22.08.45.13.68.13.22,0,.43-.03.66-.08.22-.06.43-.12.61-.2.18-.08.33-.16.45-.25.12-.09.17-.17.17-.24v-.1s0-.09-.01-.12l.13-.12.88,1.27-.12.06c-.1-.04-.16-.06-.2-.06-.06,0-.17.04-.31.11-.14.07-.32.15-.54.25-.22.09-.47.17-.77.23-.29.06-.62.1-.98.1s-.73-.05-1.09-.16-.68-.27-.96-.5c-.28-.23-.51-.51-.68-.85-.18-.34-.26-.73-.26-1.18s.09-.84.26-1.17c.17-.33.41-.62.69-.84.29-.23.62-.4.99-.51.37-.11.75-.17,1.14-.17.3,0,.58.03.83.08.25.06.47.12.66.19.19.07.35.14.48.19.13.06.22.08.28.08.04,0,.07-.01.1-.04s.06-.04.09-.06l.14.08-.79,1.14-.13-.1Z"/>
        <path class="cls-1" d="M222.43,53.44s.08-.01.12-.04c.04-.03.06-.07.06-.14v-3.98h-1.55c-.06,0-.12.02-.18.05-.06.03-.08.08-.08.16h-.22v-1.38h.22c0,.11.03.19.08.23.06.04.12.06.18.06h4.26c.06,0,.12-.02.18-.06.06-.04.08-.12.08-.23h.22v1.38h-.22c0-.07-.03-.12-.08-.16-.06-.03-.12-.05-.18-.05h-1.55v3.98c0,.12.07.18.22.18v.22h-1.54v-.22Z"/>
        <path class="cls-1" d="M228.53,48.61c-.18,0-.26.06-.26.18v2.75c0,.38.14.69.42.92.28.23.71.35,1.28.35s1-.12,1.28-.35c.28-.23.42-.54.42-.92v-2.75c0-.12-.1-.18-.3-.18v-.22h1.66v.22c-.18,0-.26.06-.26.18v3.03c0,.25-.06.48-.17.71-.11.23-.28.43-.51.6-.23.18-.52.31-.87.41-.36.1-.77.15-1.25.15s-.89-.05-1.25-.15c-.36-.1-.65-.24-.87-.41-.23-.18-.4-.38-.51-.6-.11-.23-.17-.46-.17-.71v-3.03c0-.06-.02-.11-.07-.14-.05-.03-.14-.04-.28-.04v-.22h1.71v.22Z"/>
        <path class="cls-1" d="M237.9,48.4c.71,0,1.26.12,1.66.35.4.24.6.64.6,1.2,0,.22-.04.41-.12.57-.08.17-.19.31-.32.44-.13.12-.28.22-.44.3-.16.08-.32.13-.49.17l1.17,1.71c.06.09.13.15.21.2.08.04.16.08.25.1v.22h-1.83v-.22c.1,0,.16-.04.16-.11,0-.08-.06-.2-.18-.37l-.94-1.41h-1.66v1.71c0,.06.03.11.08.14.05.03.1.04.15.04v.22h-1.59v-.22c.14,0,.22-.06.22-.18v-4.47c0-.12-.07-.18-.22-.18v-.22h3.3ZM237.88,50.67c.78,0,1.17-.25,1.17-.74,0-.2-.09-.36-.28-.47-.19-.12-.48-.17-.89-.17h-1.89v1.39h1.89Z"/>
        <path class="cls-1" d="M246.33,49.51c0-.15-.12-.23-.37-.23h-2.92v1.2h1.84c.14,0,.24,0,.3-.03.06-.02.1-.07.1-.16h.21v1.27h-.24c.02-.09,0-.14-.1-.16-.09-.02-.21-.03-.37-.03h-1.75v1.41h3.06c.1,0,.18-.02.24-.07.06-.04.1-.1.1-.17h.22v1.26h-.22c0-.07-.03-.11-.1-.12-.06,0-.14-.01-.24-.01h-4.39v-.22s.08-.01.12-.04c.04-.03.06-.07.06-.14v-4.47c0-.06-.02-.11-.06-.14-.04-.03-.08-.04-.12-.04v-.22h4.25c.25,0,.37-.07.37-.22h.22v1.33h-.22Z"/>
        <path class="cls-1" d="M258.22,52.8s-.05,0-.07,0c-.02,0-.04,0-.07,0-.05,0-.16.05-.34.14-.18.1-.41.2-.68.32-.27.12-.59.22-.94.31-.35.09-.72.13-1.1.13-.5,0-.98-.06-1.45-.19-.46-.13-.87-.32-1.23-.59-.36-.27-.64-.6-.84-1-.21-.4-.31-.86-.31-1.4s.1-.99.31-1.39c.21-.4.49-.74.84-1.01.35-.27.76-.47,1.23-.61.46-.14.94-.2,1.45-.2.41,0,.77.03,1.11.1.33.06.62.13.87.2.25.07.44.14.59.2.14.06.23.1.26.1.04,0,.07-.02.1-.06.03-.04.05-.07.07-.1l.18.14-.93,1.45-.12-.08s0-.05,0-.07,0-.05-.02-.08c-.02-.09-.1-.18-.24-.27-.14-.09-.32-.17-.53-.25-.21-.07-.43-.13-.67-.18-.23-.05-.45-.07-.65-.07-.34,0-.66.05-.96.14-.31.1-.57.24-.8.42-.23.18-.41.41-.54.68-.14.27-.2.57-.2.91s.07.65.2.91c.14.27.32.49.54.68.23.18.49.32.8.42.31.1.63.14.96.14.25,0,.52-.03.8-.09.28-.06.53-.14.77-.23.23-.09.42-.2.58-.31.16-.12.23-.23.23-.33,0-.06-.02-.1-.05-.14l.17-.1.79,1.27-.1.1Z"/>
        <path class="cls-1" d="M262.6,48.32c.44,0,.85.06,1.24.17.39.11.72.28,1.01.5.29.22.51.5.68.84.17.34.25.74.25,1.19s-.08.85-.25,1.19c-.17.34-.39.62-.68.84-.29.22-.62.38-1.01.48-.39.1-.8.15-1.24.15s-.85-.05-1.24-.15c-.39-.1-.72-.26-1.01-.48-.29-.22-.51-.5-.68-.84-.17-.34-.25-.74-.25-1.19s.08-.85.25-1.19c.17-.34.4-.62.68-.84.29-.22.62-.39,1.01-.5.39-.11.8-.17,1.24-.17ZM262.6,49.21c-.26,0-.5.04-.75.13-.24.08-.46.2-.65.36-.19.16-.34.35-.46.57-.12.22-.17.48-.17.77s.06.54.17.77c.12.22.27.41.46.57.19.16.41.27.65.36.24.08.49.13.75.13s.5-.04.75-.13c.24-.08.46-.2.65-.36.19-.16.34-.34.46-.57.12-.22.17-.48.17-.77s-.06-.54-.17-.77c-.12-.22-.27-.41-.46-.57-.19-.16-.41-.27-.65-.36-.24-.08-.49-.13-.75-.13Z"/>
        <path class="cls-1" d="M266.98,52.88c0-.23.08-.43.25-.6.17-.17.37-.25.6-.25s.43.08.6.25c.17.17.25.37.25.6s-.08.42-.25.58c-.17.16-.37.23-.6.23s-.43-.08-.6-.23-.25-.35-.25-.58Z"/>
        <path class="cls-1" d="M270.05,55.05c.12-.03.25-.09.41-.19s.29-.2.41-.32c.12-.12.23-.26.31-.4.08-.14.11-.29.1-.43-.02-.03-.06-.05-.13-.06-.07,0-.14-.01-.2-.01-.2,0-.37-.07-.52-.2-.15-.13-.22-.32-.22-.56s.08-.43.25-.6c.16-.17.35-.25.56-.25.32,0,.56.12.72.35.16.23.25.51.25.85,0,.26-.05.5-.16.74-.11.23-.25.45-.42.65s-.38.37-.61.51c-.23.14-.47.24-.72.3v-.38Z"/>
        <path class="cls-1" d="M280.95,53.88c0-.12-.04-.19-.11-.2-.08-.02-.17-.02-.29-.02h-5.69v-.22c.24,0,.36-.07.36-.22v-5.43c0-.14-.12-.21-.36-.21v-.22h2.06v.22c-.22,0-.33.07-.33.21v4.76h3.97c.12,0,.22-.03.29-.08.08-.06.11-.13.11-.23h.22v1.64h-.22Z"/>
        <path class="cls-1" d="M283.39,53.44s.08-.01.12-.04c.04-.03.06-.07.06-.14v-3.98h-1.55c-.06,0-.12.02-.18.05-.06.03-.08.08-.08.16h-.22v-1.38h.22c0,.11.03.19.08.23.06.04.12.06.18.06h4.26c.06,0,.12-.02.18-.06.06-.04.08-.12.08-.23h.22v1.38h-.22c0-.07-.03-.12-.08-.16-.06-.03-.12-.05-.18-.05h-1.55v3.98c0,.12.07.18.22.18v.22h-1.54v-.22Z"/>
        <path class="cls-1" d="M287.7,53.44c.18,0,.27-.06.27-.18v-4.47c0-.12-.09-.18-.27-.18v-.22h3.32c.47,0,.87.08,1.21.23.33.15.61.35.82.59.21.24.37.52.47.84.1.31.15.64.15.97s-.05.66-.14.97-.25.59-.45.84c-.21.24-.47.44-.8.59-.33.15-.73.23-1.2.23h-3.37v-.22ZM290.67,52.77c.25,0,.48-.02.71-.05.22-.04.42-.12.59-.24.17-.12.3-.3.4-.54.1-.24.15-.55.15-.95s-.05-.71-.15-.94c-.1-.23-.23-.4-.4-.51-.17-.12-.36-.19-.59-.22-.22-.03-.46-.04-.71-.04h-1.55v3.49h1.55Z"/>
        <path class="cls-1" d="M294.93,52.88c0-.23.08-.43.25-.6.17-.17.37-.25.6-.25s.43.08.6.25c.17.17.25.37.25.6s-.08.42-.25.58-.37.23-.6.23-.43-.08-.6-.23-.25-.35-.25-.58Z"/>
      </g>
      <path class="cls-1" d="M284.49,39.1c.67,0,1.13-.09,1.37-.29.24-.19.36-.45.36-.77v-16.56c-.34,0-.72.02-1.15.04-.43.03-.83.09-1.19.18-.36.09-.66.22-.9.4-.24.18-.36.4-.36.66h-.86v-4.49h.86c0,.56.31.84.93.84.58,0,1.27-.12,2.09-.35.81-.23,1.22-.54,1.22-.92,0-.56-.55-.84-1.65-.84v-.53h8.48v.53c-.58,0-.96.08-1.15.24-.19.16-.29.45-.29.86v19.95c0,.32.12.58.36.77.24.19.69.29,1.37.29v.53h-9.49v-.53Z"/>
      <g>
        <path class="cls-1" d="M3.46,25.22c-.72,1.76-1.56,3.27-2.53,4.52l-.93-.66c.63-.87,1.29-2.09,1.97-3.66.68-1.57,1.15-2.94,1.42-4.11H.63v-1.27h2.85v-3.73h1.51v3.73h1.92v1.27h-1.92v1.86c.73,1.02,1.49,1.86,2.28,2.52l-.85,1.1c-.55-.57-1.02-1.14-1.43-1.71v9.31h-1.51l-.02-9.18ZM6.8,33.1l-.75-.93c1.08-.77,2.15-1.74,3.22-2.93s1.98-2.43,2.73-3.74h-4.62v-1.23h4.97v-3.39h-3.13c-.43.97-.85,1.7-1.25,2.19l-1.12-.61c.44-.71.87-1.61,1.29-2.69.42-1.08.7-2.06.84-2.95l1.54.21c-.16.75-.42,1.62-.79,2.61h2.63v-3.29h1.6v3.29h4.6v1.25h-4.6v3.39h5.16v1.23h-4.85c.83,1.4,1.84,2.7,3.03,3.9,1.18,1.2,2.13,2.06,2.83,2.58l-1,1.1c-1.96-1.51-3.7-3.41-5.2-5.72v7.01h-1.53v-6.8c-1.74,2.45-3.6,4.3-5.57,5.53Z"/>
        <path class="cls-1" d="M22.54,21.27v-1.27h10.58l.02-3.71h1.6v3.71h6.53v1.27h-6.52c.03,1.8.22,3.47.55,5s.89,2.94,1.68,4.2c.79,1.26,1.42,1.89,1.91,1.89.42,0,.67-.35.73-1.04l.14-1.22c.04-.44.07-.86.09-1.27l1.29.23c0,1.39-.09,2.6-.27,3.64-.18,1.04-.69,1.56-1.53,1.56-.5,0-.95-.13-1.34-.38s-.91-.76-1.55-1.51c-.64-.75-1.22-1.69-1.74-2.81s-.9-2.43-1.16-3.92c-.26-1.49-.4-2.95-.44-4.35h-10.59ZM23,33.74l-.25-1.35c1.07-.07,2.57-.21,4.51-.41v-6.61h-3.86v-1.22h9.04v1.22h-3.6v6.45c2.27-.25,3.79-.45,4.57-.59l.05,1.29c-.59.13-2.13.34-4.61.62-2.49.28-4.44.48-5.85.6ZM38.55,19.93c-.18-.24-1-1.15-2.46-2.72l1.22-.78c.57.56,1.4,1.42,2.51,2.59l-1.27.91Z"/>
        <path class="cls-1" d="M62.96,24.21c-1.45-.61-3.05-1.57-4.8-2.86-1.75-1.29-3.2-2.64-4.35-4.05-.98,1.33-2.37,2.67-4.19,4.03s-3.48,2.37-5,3.02l-.74-1.04c1.26-.53,2.85-1.52,4.79-2.96,1.93-1.44,3.28-2.8,4.04-4.06h2.09c1.05,1.31,2.44,2.6,4.16,3.86,1.72,1.27,3.39,2.22,5,2.85l-.99,1.2ZM45.5,34.18l-.21-1.33c.71-.01,1.64-.04,2.81-.08,1.02-1.43,2.01-3.06,2.95-4.91h-5.95v-1.23h17.52v1.23h-9.75c-.99,1.75-2.01,3.37-3.05,4.84,4.14-.18,7.19-.39,9.15-.62-.95-1.15-1.71-2-2.29-2.56l1.24-.68c.56.51,1.29,1.29,2.22,2.35.92,1.05,1.61,1.9,2.06,2.52l-1.44.7c-.22-.33-.52-.75-.91-1.25-1.27.16-3.53.36-6.79.58-3.26.22-5.78.37-7.56.44ZM48.56,23.61v-1.22h10.71v1.22h-10.71Z"/>
        <path class="cls-1" d="M69.56,34.33v-8.16c-.97.89-1.93,1.64-2.9,2.23l-.66-.99c1.39-.94,2.69-2.08,3.9-3.42,1.2-1.34,2.02-2.58,2.44-3.71h-5.57v-1.2h2.93v-2.8h1.47v2.8h2.59l.48.54c-.63,1.67-1.67,3.34-3.12,4.99v.08c.8.72,1.8,1.43,3,2.14l-.64,1.37c-.84-.6-1.63-1.25-2.36-1.94v8.08h-1.54ZM72.71,33.76v-1.24h5.75v-9.2h-4.28v-1.24h4.28v-5.76h1.58v5.76h4.81v1.24h-4.81v9.2h5.51v1.24h-12.84Z"/>
      </g>
      <g>
        <path class="cls-1" d="M107.01,27.11v10.15c0,.45.12.79.36,1.04.24.24.64.43,1.21.57v.71h-10.45v-.71c.59-.15,1-.34,1.23-.58s.34-.58.34-1.02V11.5c0-.46-.11-.81-.34-1.05-.23-.24-.64-.43-1.23-.58v-.71h18.05c2.55,0,4.57.13,6.07.4,1.5.27,2.8.74,3.91,1.4,1.29.77,2.26,1.82,2.89,3.14.6,1.28.91,2.64.91,4.1,0,4.96-3.03,7.87-9.1,8.71l6.5,8.4c1.14,1.47,1.98,2.42,2.51,2.84.53.42,1.18.66,1.95.7v.71h-12.09v-.71c.83-.12,1.25-.39,1.25-.8,0-.27-.38-.91-1.15-1.94l-9.41-13.94c1.67,0,7.82-.08,8.51-.17.69-.09,1.32-.27,1.89-.56,1.24-.61,1.86-1.71,1.86-3.3s-.62-2.69-1.86-3.3c-.59-.3-1.21-.49-1.88-.57-.66-.08-1.84-.12-3.54-.12h-8.39v12.94Z"/>
        <path class="cls-1" d="M156.49,16.47l.05,5.53h-.56c-.14-.5-.32-.85-.55-1.04-.23-.19-.56-.28-1-.28h-14.02v5.07h8.7c.42,0,.75-.1.98-.29.23-.19.42-.54.57-1.03h.56v6.66h-.56c-.14-.49-.32-.83-.55-1.02-.23-.2-.56-.29-1-.29h-8.7v5.63h14.65c.42,0,.75-.09.98-.28.23-.19.41-.53.55-1.04h.58l-.05,5.45-23.55.05v-.58c.48-.12.82-.3,1.02-.54.2-.23.3-.56.3-.99v-18.88c0-.43-.1-.75-.29-.97-.19-.22-.54-.4-1.03-.56v-.58l22.91-.02Z"/>
        <path class="cls-1" d="M178.24,33.89l-5.44-10.74-5.16,10.57-1.21,2.61c-.29.6-.43,1.08-.43,1.42,0,.66.44,1.08,1.32,1.26v.58h-8.48v-.58c.52-.08.91-.24,1.16-.47.25-.23.55-.69.9-1.38l8.43-17.07c.32-.65.47-1.21.47-1.69,0-.56-.39-1-1.16-1.32v-.58h8.97v.58c-.76.3-1.13.77-1.13,1.4,0,.45.17,1.01.51,1.67l8.74,16.55c.48.9.86,1.48,1.13,1.75.27.27.69.45,1.26.56v.58h-9.43v-.58c.89-.15,1.34-.57,1.34-1.25,0-.42-.17-.95-.52-1.58l-1.28-2.28Z"/>
        <path class="cls-1" d="M211.55,39.48l-21.87.1v-.58c.48-.12.82-.3,1.02-.54.2-.23.3-.56.3-.99v-18.88c0-.43-.1-.75-.29-.97-.19-.22-.54-.4-1.03-.56v-.58h8.16v.58c-.49.14-.84.32-1.03.55-.19.23-.29.55-.29.98v16.8h12.92c.44,0,.77-.09.99-.28.22-.19.41-.53.56-1.04h.56v5.4Z"/>
        <path class="cls-1" d="M220.63,22.41l.07,15.04c0,.43.1.75.29.98.19.23.54.42,1.03.57v.58h-8.16v-.58c.48-.12.82-.3,1.02-.54.2-.23.3-.56.3-.99l-.12-15.06h5.58Z"/>
        <path class="cls-1" d="M215.07,21.19l.05-2.33c-.04-.19-.03-.99-.23-1.22-.2-.23-.54-.41-1.02-.54v-.58h8.16v.58c-.49.15-.84.34-1.03.57-.19.23-.29.55-.29.98l-.07,2.55h-5.58Z"/>
        <path class="cls-1" d="M225.09,16.47l22.49.02v1.01l-13.61,17.89h11.71c.44,0,.77-.1.99-.29.22-.2.41-.54.56-1.03h.56l-.05,5.51h-22.73v-1.24l13.45-17.66h-11.18c-.44,0-.77.09-.99.28-.22.19-.41.53-.56,1.04h-.56l-.09-5.53Z"/>
        <path class="cls-1" d="M272.86,16.47l.05,5.53h-.56c-.14-.5-.32-.85-.55-1.04-.23-.19-.56-.28-1-.28h-14.02v5.07h8.7c.43,0,.75-.1.98-.29.23-.19.41-.54.57-1.03h.56v6.66h-.56c-.14-.49-.32-.83-.55-1.02-.23-.2-.56-.29-1-.29h-8.7v5.63h14.65c.43,0,.75-.09.98-.28.23-.19.41-.53.55-1.04h.58l-.05,5.45-23.55.05v-.58c.48-.12.82-.3,1.02-.54.2-.23.3-.56.3-.99v-18.88c0-.43-.1-.75-.29-.97-.19-.22-.54-.4-1.03-.56v-.58l22.91-.02Z"/>
      </g>
    </g>
  </g>
</svg>